<svg width="17" height="18" viewBox="0 0 17 18" fill="none" xmlns="http://www.w3.org/2000/svg">
<path d="M8.61331 8.19954C8.54248 8.19246 8.45748 8.19246 8.37956 8.19954C6.69373 8.14288 5.35498 6.76163 5.35498 5.06163C5.35498 3.32621 6.75748 1.91663 8.49998 1.91663C10.2354 1.91663 11.645 3.32621 11.645 5.06163C11.6379 6.76163 10.2991 8.14288 8.61331 8.19954Z" stroke="#9A9EA6" stroke-width="1.2" stroke-linecap="round" stroke-linejoin="round"/>
<path d="M5.07176 10.8134C3.35759 11.9609 3.35759 13.8309 5.07176 14.9713C7.01967 16.2746 10.2143 16.2746 12.1622 14.9713C13.8763 13.8238 13.8763 11.9538 12.1622 10.8134C10.2213 9.51712 7.02676 9.51712 5.07176 10.8134Z" stroke="#9A9EA6" stroke-width="1.2" stroke-linecap="round" stroke-linejoin="round"/>
</svg>
