<svg width="40" height="40" viewBox="0 0 40 40" fill="none" xmlns="http://www.w3.org/2000/svg">
<rect width="40" height="40" rx="20" fill="#292D32" fill-opacity="0.05"/>
<path d="M20.0142 13.5613C17.6696 13.5613 15.7642 15.4667 15.7642 17.8113V19.8584C15.7642 20.2904 15.58 20.9492 15.3604 21.3175L14.5458 22.6704C14.0429 23.5063 14.39 24.4342 15.3108 24.7459C18.3638 25.7659 21.6575 25.7659 24.7104 24.7459C25.5675 24.4625 25.9429 23.4496 25.4754 22.6704L24.6608 21.3175C24.4483 20.9492 24.2642 20.2904 24.2642 19.8584V17.8113C24.2642 15.4738 22.3517 13.5613 20.0142 13.5613Z" stroke="#292D32" stroke-width="1.2" stroke-miterlimit="10" stroke-linecap="round"/>
<path d="M21.3247 13.7666C21.1051 13.7029 20.8784 13.6533 20.6447 13.625C19.9647 13.54 19.313 13.5896 18.7039 13.7666C18.9093 13.2425 19.4193 12.8741 20.0143 12.8741C20.6093 12.8741 21.1193 13.2425 21.3247 13.7666Z" stroke="#292D32" stroke-width="1.2" stroke-miterlimit="10" stroke-linecap="round" stroke-linejoin="round"/>
<path d="M22.1392 25.0009C22.1392 26.1696 21.1829 27.1259 20.0142 27.1259C19.4333 27.1259 18.895 26.885 18.5125 26.5025C18.13 26.12 17.8892 25.5817 17.8892 25.0009" stroke="#292D32" stroke-width="1.2" stroke-miterlimit="10"/>
<rect x="29" width="10" height="10" rx="5" fill="#F25757"/>
</svg>
