<svg width="18" height="19" viewBox="0 0 18 19" fill="none" xmlns="http://www.w3.org/2000/svg">
<path d="M2.31344 6.54939C1.76397 4.79338 2.78336 2.98339 4.629 2.09388C4.95651 1.93596 5.33191 1.90885 5.67871 2.01808C6.02552 2.12731 6.31763 2.36465 6.49553 2.68176L7.37219 4.24408C7.51329 4.4954 7.57606 4.78316 7.55246 5.07041C7.52885 5.35767 7.41994 5.63132 7.23971 5.85624L5.6507 7.83428C5.5724 7.93196 5.52075 8.04826 5.50078 8.17184C5.48081 8.29542 5.4932 8.42207 5.53675 8.53943L5.56533 8.61112L5.63821 8.79011C6.00704 9.65751 6.49092 10.4713 7.07683 11.2097C7.71175 11.9923 8.45601 12.6796 9.28671 13.2502L9.35179 13.2929C9.45672 13.3606 9.57742 13.4001 9.70212 13.4073C9.82681 13.4145 9.95126 13.3893 10.0633 13.3342L12.3386 12.2133C12.5972 12.0862 12.888 12.0392 13.1734 12.0785C13.4589 12.1177 13.7262 12.2414 13.9409 12.4336L15.2841 13.633C15.8436 14.1322 15.9157 14.9814 15.4516 15.5692C14.182 17.1792 12.1874 17.7756 10.5944 16.8545C8.64092 15.7199 6.91293 14.2354 5.49678 12.4753C4.07178 10.7181 2.99127 8.70764 2.31201 6.54961L2.31344 6.54939ZM7.05054 8.40322L8.36642 6.76124C8.72716 6.31153 8.94527 5.76427 8.99274 5.18971C9.0402 4.61515 8.91487 4.03951 8.63282 3.5367L7.75759 1.97416C7.39955 1.3361 6.8117 0.858562 6.11381 0.638856C5.41593 0.419151 4.66053 0.473812 4.00155 0.791701C1.70932 1.89765 0.110057 4.3513 0.933103 6.98256C1.50818 8.81949 2.53497 11.1107 4.37268 13.3855C5.90035 15.2833 7.76421 16.8837 9.87113 18.1069C12.2605 19.4878 15.0093 18.4682 16.5888 16.4667C17.0409 15.8944 17.2574 15.1712 17.1944 14.4446C17.1313 13.718 16.7934 13.0429 16.2495 12.557L14.9061 11.3561C14.4764 10.9723 13.9419 10.7256 13.371 10.6475C12.8001 10.5695 12.219 10.6638 11.7021 10.9183L9.81288 11.8482C9.21904 11.3985 8.67985 10.8809 8.20631 10.3059C7.74451 9.72203 7.3564 9.08346 7.05076 8.40465L7.05054 8.40322Z" fill="#262C55" fill-opacity="0.54"/>
</svg>
