<svg width="147" height="27" viewBox="0 0 147 27" fill="none" xmlns="http://www.w3.org/2000/svg">
<path d="M43.75 20.1245C42.5208 20.1245 41.4635 19.8641 40.5781 19.3433C39.6979 18.8172 39.0208 18.0881 38.5469 17.1558C38.0781 16.2235 37.8438 15.1506 37.8438 13.937C37.8438 12.7078 38.0807 11.6297 38.5547 10.7026C39.0339 9.77034 39.7135 9.04378 40.5938 8.52295C41.474 7.99691 42.5208 7.73389 43.7344 7.73389C44.7813 7.73389 45.6979 7.92399 46.4844 8.3042C47.2708 8.68441 47.8932 9.21826 48.3516 9.90576C48.8099 10.5933 49.0625 11.4006 49.1094 12.3276H45.9688C45.8802 11.7287 45.6458 11.2469 45.2656 10.8823C44.8906 10.5125 44.3984 10.3276 43.7891 10.3276C43.2734 10.3276 42.8229 10.4683 42.4375 10.7495C42.0573 11.0256 41.7604 11.4292 41.5469 11.9604C41.3333 12.4917 41.2266 13.1349 41.2266 13.8901C41.2266 14.6558 41.3307 15.3068 41.5391 15.8433C41.7526 16.3797 42.0521 16.7886 42.4375 17.0698C42.8229 17.3511 43.2734 17.4917 43.7891 17.4917C44.1693 17.4917 44.5104 17.4136 44.8125 17.2573C45.1198 17.1011 45.3724 16.8745 45.5703 16.5776C45.7734 16.2756 45.9063 15.9136 45.9688 15.4917H49.1094C49.0573 16.4084 48.8073 17.2157 48.3594 17.9136C47.9167 18.6063 47.3047 19.1479 46.5234 19.5386C45.7422 19.9292 44.8177 20.1245 43.75 20.1245ZM51.2402 19.8901V7.89014H54.4668V9.98389H54.5918C54.8105 9.23909 55.1777 8.67659 55.6934 8.29639C56.209 7.91097 56.8027 7.71826 57.4746 7.71826C57.6413 7.71826 57.821 7.72868 58.0137 7.74951C58.2064 7.77034 58.3757 7.79899 58.5215 7.83545V10.7886C58.3652 10.7417 58.1491 10.7 57.873 10.6636C57.597 10.6271 57.3444 10.6089 57.1152 10.6089C56.6257 10.6089 56.1882 10.7157 55.8027 10.9292C55.4225 11.1375 55.1204 11.4292 54.8965 11.8042C54.6777 12.1792 54.5684 12.6115 54.5684 13.1011V19.8901H51.2402ZM65.1523 20.1245C63.918 20.1245 62.8555 19.8745 61.9648 19.3745C61.0794 18.8693 60.3971 18.1558 59.918 17.2339C59.4388 16.3068 59.1992 15.2104 59.1992 13.9448C59.1992 12.7104 59.4388 11.6271 59.918 10.6948C60.3971 9.76253 61.0716 9.03597 61.9414 8.51514C62.8164 7.9943 63.8424 7.73389 65.0195 7.73389C65.8112 7.73389 66.5482 7.86149 67.2305 8.1167C67.918 8.3667 68.5169 8.7443 69.0273 9.24951C69.543 9.75472 69.944 10.3901 70.2305 11.1558C70.5169 11.9162 70.6602 12.8068 70.6602 13.8276V14.7417H60.5273V12.6792H67.5273C67.5273 12.2 67.4232 11.7756 67.2148 11.4058C67.0065 11.036 66.7174 10.7469 66.3477 10.5386C65.9831 10.325 65.5586 10.2183 65.0742 10.2183C64.569 10.2183 64.1211 10.3354 63.7305 10.5698C63.3451 10.799 63.043 11.1089 62.8242 11.4995C62.6055 11.8849 62.4935 12.3146 62.4883 12.7886V14.7495C62.4883 15.3433 62.5977 15.8563 62.8164 16.2886C63.0404 16.7209 63.3555 17.0542 63.7617 17.2886C64.168 17.5229 64.6497 17.6401 65.207 17.6401C65.5768 17.6401 65.9154 17.5881 66.2227 17.4839C66.5299 17.3797 66.793 17.2235 67.0117 17.0151C67.2305 16.8068 67.3971 16.5516 67.5117 16.2495L70.5898 16.4526C70.4336 17.1922 70.1133 17.8381 69.6289 18.3901C69.1497 18.937 68.5299 19.3641 67.7695 19.6714C67.0143 19.9735 66.1419 20.1245 65.1523 20.1245ZM82.8164 11.312L79.7695 11.4995C79.7174 11.2391 79.6055 11.0047 79.4336 10.7964C79.2617 10.5828 79.0352 10.4136 78.7539 10.2886C78.4779 10.1584 78.1471 10.0933 77.7617 10.0933C77.2461 10.0933 76.8112 10.2026 76.457 10.4214C76.1029 10.6349 75.9258 10.9214 75.9258 11.2808C75.9258 11.5672 76.0404 11.8094 76.2695 12.0073C76.4987 12.2052 76.8919 12.3641 77.4492 12.4839L79.6211 12.9214C80.7878 13.161 81.6576 13.5464 82.2305 14.0776C82.8034 14.6089 83.0898 15.3068 83.0898 16.1714C83.0898 16.9578 82.8581 17.6479 82.3945 18.2417C81.9362 18.8354 81.306 19.299 80.5039 19.6323C79.707 19.9604 78.7878 20.1245 77.7461 20.1245C76.1576 20.1245 74.8919 19.7938 73.9492 19.1323C73.0117 18.4657 72.4622 17.5594 72.3008 16.4136L75.5742 16.2417C75.6732 16.7261 75.9128 17.0959 76.293 17.3511C76.6732 17.6011 77.1602 17.7261 77.7539 17.7261C78.3372 17.7261 78.806 17.6141 79.1602 17.3901C79.5195 17.161 79.7018 16.8667 79.707 16.5073C79.7018 16.2052 79.5742 15.9578 79.3242 15.7651C79.0742 15.5672 78.6888 15.4162 78.168 15.312L76.0898 14.8979C74.918 14.6636 74.0456 14.2573 73.4727 13.6792C72.9049 13.1011 72.6211 12.3641 72.6211 11.4683C72.6211 10.6974 72.8294 10.0334 73.2461 9.47607C73.668 8.91878 74.2591 8.4891 75.0195 8.18701C75.7852 7.88493 76.681 7.73389 77.707 7.73389C79.2227 7.73389 80.4154 8.0542 81.2852 8.69482C82.1602 9.33545 82.6706 10.2078 82.8164 11.312ZM91.5684 7.89014V10.3901H84.3418V7.89014H91.5684ZM85.9824 5.01514H89.3105V16.2026C89.3105 16.5099 89.3574 16.7495 89.4512 16.9214C89.5449 17.0881 89.6751 17.2052 89.8418 17.2729C90.0137 17.3407 90.2116 17.3745 90.4355 17.3745C90.5918 17.3745 90.748 17.3615 90.9043 17.3354C91.0605 17.3042 91.1803 17.2808 91.2637 17.2651L91.7871 19.7417C91.6204 19.7938 91.3861 19.8537 91.084 19.9214C90.7819 19.9943 90.4147 20.0386 89.9824 20.0542C89.1803 20.0854 88.4772 19.9787 87.873 19.7339C87.2741 19.4891 86.8079 19.1089 86.4746 18.5933C86.1413 18.0776 85.9772 17.4266 85.9824 16.6401V5.01514ZM94.0566 19.8901V3.89014H97.3848V9.90576H97.4863C97.6322 9.58284 97.8431 9.25472 98.1191 8.92139C98.4004 8.58284 98.765 8.3016 99.2129 8.07764C99.666 7.84847 100.229 7.73389 100.9 7.73389C101.775 7.73389 102.583 7.96305 103.322 8.42139C104.062 8.87451 104.653 9.55941 105.096 10.4761C105.538 11.3875 105.76 12.5308 105.76 13.9058C105.76 15.2443 105.544 16.3745 105.111 17.2964C104.684 18.2131 104.101 18.9084 103.361 19.3823C102.627 19.8511 101.804 20.0854 100.893 20.0854C100.247 20.0854 99.6973 19.9787 99.2441 19.7651C98.7962 19.5516 98.429 19.2834 98.1426 18.9604C97.8561 18.6323 97.6374 18.3016 97.4863 17.9683H97.3379V19.8901H94.0566ZM97.3145 13.8901C97.3145 14.6037 97.4134 15.2261 97.6113 15.7573C97.8092 16.2886 98.0957 16.7026 98.4707 16.9995C98.8457 17.2912 99.3014 17.437 99.8379 17.437C100.38 17.437 100.838 17.2886 101.213 16.9917C101.588 16.6896 101.872 16.2729 102.064 15.7417C102.262 15.2052 102.361 14.5881 102.361 13.8901C102.361 13.1974 102.265 12.5881 102.072 12.062C101.88 11.536 101.596 11.1245 101.221 10.8276C100.846 10.5308 100.385 10.3823 99.8379 10.3823C99.2962 10.3823 98.8379 10.5256 98.4629 10.812C98.0931 11.0985 97.8092 11.5047 97.6113 12.0308C97.4134 12.5568 97.3145 13.1766 97.3145 13.8901ZM111.402 20.1167C110.637 20.1167 109.954 19.9839 109.355 19.7183C108.757 19.4474 108.283 19.049 107.934 18.5229C107.59 17.9917 107.418 17.3302 107.418 16.5386C107.418 15.8719 107.54 15.312 107.785 14.8589C108.03 14.4058 108.363 14.0412 108.785 13.7651C109.207 13.4891 109.686 13.2808 110.223 13.1401C110.764 12.9995 111.332 12.9006 111.926 12.8433C112.624 12.7703 113.186 12.7026 113.613 12.6401C114.04 12.5724 114.35 12.4735 114.543 12.3433C114.736 12.2131 114.832 12.0203 114.832 11.7651V11.7183C114.832 11.2235 114.676 10.8407 114.363 10.5698C114.056 10.299 113.618 10.1636 113.051 10.1636C112.452 10.1636 111.975 10.2964 111.621 10.562C111.267 10.8224 111.033 11.1506 110.918 11.5464L107.84 11.2964C107.996 10.5672 108.303 9.93701 108.762 9.40576C109.22 8.8693 109.811 8.45784 110.535 8.17139C111.264 7.87972 112.108 7.73389 113.066 7.73389C113.733 7.73389 114.371 7.81201 114.98 7.96826C115.595 8.12451 116.139 8.3667 116.613 8.69482C117.092 9.02295 117.47 9.44482 117.746 9.96045C118.022 10.4709 118.16 11.0828 118.16 11.7964V19.8901H115.004V18.2261H114.91C114.717 18.6011 114.46 18.9318 114.137 19.2183C113.814 19.4995 113.426 19.7209 112.973 19.8823C112.52 20.0386 111.996 20.1167 111.402 20.1167ZM112.355 17.8198C112.845 17.8198 113.277 17.7235 113.652 17.5308C114.027 17.3328 114.322 17.0672 114.535 16.7339C114.749 16.4006 114.855 16.0229 114.855 15.6011V14.3276C114.751 14.3953 114.608 14.4578 114.426 14.5151C114.249 14.5672 114.048 14.6167 113.824 14.6636C113.6 14.7052 113.376 14.7443 113.152 14.7808C112.928 14.812 112.725 14.8407 112.543 14.8667C112.152 14.924 111.811 15.0151 111.52 15.1401C111.228 15.2651 111.001 15.4344 110.84 15.6479C110.678 15.8563 110.598 16.1167 110.598 16.4292C110.598 16.8823 110.762 17.2287 111.09 17.4683C111.423 17.7026 111.845 17.8198 112.355 17.8198ZM130.727 11.312L127.68 11.4995C127.628 11.2391 127.516 11.0047 127.344 10.7964C127.172 10.5828 126.945 10.4136 126.664 10.2886C126.388 10.1584 126.057 10.0933 125.672 10.0933C125.156 10.0933 124.721 10.2026 124.367 10.4214C124.013 10.6349 123.836 10.9214 123.836 11.2808C123.836 11.5672 123.951 11.8094 124.18 12.0073C124.409 12.2052 124.802 12.3641 125.359 12.4839L127.531 12.9214C128.698 13.161 129.568 13.5464 130.141 14.0776C130.714 14.6089 131 15.3068 131 16.1714C131 16.9578 130.768 17.6479 130.305 18.2417C129.846 18.8354 129.216 19.299 128.414 19.6323C127.617 19.9604 126.698 20.1245 125.656 20.1245C124.068 20.1245 122.802 19.7938 121.859 19.1323C120.922 18.4657 120.372 17.5594 120.211 16.4136L123.484 16.2417C123.583 16.7261 123.823 17.0959 124.203 17.3511C124.583 17.6011 125.07 17.7261 125.664 17.7261C126.247 17.7261 126.716 17.6141 127.07 17.3901C127.43 17.161 127.612 16.8667 127.617 16.5073C127.612 16.2052 127.484 15.9578 127.234 15.7651C126.984 15.5672 126.599 15.4162 126.078 15.312L124 14.8979C122.828 14.6636 121.956 14.2573 121.383 13.6792C120.815 13.1011 120.531 12.3641 120.531 11.4683C120.531 10.6974 120.74 10.0334 121.156 9.47607C121.578 8.91878 122.169 8.4891 122.93 8.18701C123.695 7.88493 124.591 7.73389 125.617 7.73389C127.133 7.73389 128.326 8.0542 129.195 8.69482C130.07 9.33545 130.581 10.2078 130.727 11.312ZM138.564 20.1245C137.33 20.1245 136.268 19.8745 135.377 19.3745C134.492 18.8693 133.809 18.1558 133.33 17.2339C132.851 16.3068 132.611 15.2104 132.611 13.9448C132.611 12.7104 132.851 11.6271 133.33 10.6948C133.809 9.76253 134.484 9.03597 135.354 8.51514C136.229 7.9943 137.255 7.73389 138.432 7.73389C139.223 7.73389 139.96 7.86149 140.643 8.1167C141.33 8.3667 141.929 8.7443 142.439 9.24951C142.955 9.75472 143.356 10.3901 143.643 11.1558C143.929 11.9162 144.072 12.8068 144.072 13.8276V14.7417H133.939V12.6792H140.939C140.939 12.2 140.835 11.7756 140.627 11.4058C140.419 11.036 140.13 10.7469 139.76 10.5386C139.395 10.325 138.971 10.2183 138.486 10.2183C137.981 10.2183 137.533 10.3354 137.143 10.5698C136.757 10.799 136.455 11.1089 136.236 11.4995C136.018 11.8849 135.906 12.3146 135.9 12.7886V14.7495C135.9 15.3433 136.01 15.8563 136.229 16.2886C136.452 16.7209 136.768 17.0542 137.174 17.2886C137.58 17.5229 138.062 17.6401 138.619 17.6401C138.989 17.6401 139.327 17.5881 139.635 17.4839C139.942 17.3797 140.205 17.2235 140.424 17.0151C140.643 16.8068 140.809 16.5516 140.924 16.2495L144.002 16.4526C143.846 17.1922 143.525 17.8381 143.041 18.3901C142.562 18.937 141.942 19.3641 141.182 19.6714C140.426 19.9735 139.554 20.1245 138.564 20.1245Z" fill="#262C55"/>
<path d="M17.651 8.07762L11.1784 2.13272C10.4133 1.43004 9.23767 1.43004 8.47261 2.13272L2.64711 7.48327C2.23472 7.86203 2 8.39632 2 8.95625V23.8901C2 24.9946 2.89543 25.8901 4 25.8901H15.9498V25.8901C16.8894 25.8901 17.651 25.1284 17.651 24.1889V20.5776" stroke="#3D79EF" stroke-width="2.2" stroke-linecap="round"/>
<path d="M16.3433 1.20264L21.8205 6.23327C22.2328 6.61204 22.4676 7.14633 22.4676 7.70626V25.8901" stroke="url(#paint0_linear_1_2900)" stroke-width="2.2" stroke-linecap="round"/>
<path d="M22.4668 1.20264L27.944 6.23327C28.3564 6.61204 28.5911 7.14633 28.5911 7.70626V25.8901" stroke="url(#paint1_linear_1_2900)" stroke-width="2.2" stroke-linecap="round"/>
<circle cx="17.4178" cy="14.6401" r="2.08334" fill="#3D79EF"/>
<defs>
<linearGradient id="paint0_linear_1_2900" x1="19.4054" y1="1.20264" x2="19.4054" y2="25.8901" gradientUnits="userSpaceOnUse">
<stop stop-color="#3D79EF"/>
<stop offset="1" stop-color="#F1A5C2"/>
</linearGradient>
<linearGradient id="paint1_linear_1_2900" x1="25.529" y1="1.20264" x2="25.529" y2="25.8901" gradientUnits="userSpaceOnUse">
<stop stop-color="#3D79EF"/>
<stop offset="1" stop-color="#F1A5C2"/>
</linearGradient>
</defs>
</svg>
