<svg width="36" height="36" viewBox="0 0 36 36" fill="none" xmlns="http://www.w3.org/2000/svg">
<g id="Group 1000004749">
<circle id="Ellipse 23" cx="18" cy="18" r="18" fill="white" fill-opacity="0.7"/>
<g id="Group 1000004748">
<path id="Vector" d="M11.6721 23.5861H12.8426L20.0537 16.375L18.8832 15.2045L11.6721 22.4156V23.5861ZM23.6279 15.1627L20.0746 11.6512L21.2451 10.4807C21.5656 10.1602 21.9594 10 22.4265 10C22.8936 10 23.2871 10.1602 23.607 10.4807L24.7775 11.6512C25.098 11.9717 25.2652 12.3585 25.2791 12.8117C25.2931 13.2648 25.1398 13.6514 24.8193 13.9713L23.6279 15.1627ZM22.4156 16.3959L13.5533 25.2582H10V21.7049L18.8623 12.8426L22.4156 16.3959ZM19.4685 15.7898L18.8832 15.2045L20.0537 16.375L19.4685 15.7898Z" fill="#262C55" fill-opacity="0.6"/>
</g>
</g>
</svg>
