<svg width="24" height="25" viewBox="0 0 24 25" fill="none" xmlns="http://www.w3.org/2000/svg">
<path d="M0.51209 11.9491C0.511527 13.9813 1.04253 15.9656 2.05221 17.7146L0.415527 23.6905L6.53103 22.087C8.22249 23.0078 10.1177 23.4903 12.0435 23.4904H12.0486C18.4062 23.4904 23.5815 18.317 23.5842 11.9582C23.5855 8.87692 22.3866 5.97948 20.2084 3.79961C18.0306 1.61992 15.1342 0.418887 12.0481 0.41748C5.68972 0.41748 0.514809 5.59061 0.512184 11.9491" fill="url(#paint0_linear_1_4405)"/>
<path d="M0.100313 11.9452C0.0996563 14.0506 0.649687 16.1059 1.69537 17.9175L0 24.1075L6.33478 22.4466C8.08022 23.3982 10.0454 23.9 12.0451 23.9007H12.0502C18.636 23.9007 23.9972 18.5412 24 11.9548C24.0011 8.76281 22.7591 5.76122 20.5031 3.50325C18.2468 1.24556 15.2468 0.0013125 12.0502 0C5.46337 0 0.102938 5.35875 0.100313 11.9452ZM3.87281 17.6055L3.63628 17.23C2.64197 15.649 2.11716 13.822 2.11791 11.946C2.12006 6.47147 6.57544 2.0175 12.054 2.0175C14.7071 2.01863 17.2005 3.05288 19.0759 4.92938C20.9512 6.80606 21.9831 9.30075 21.9824 11.9541C21.98 17.4286 17.5245 21.8831 12.0502 21.8831H12.0463C10.2638 21.8822 8.51569 21.4035 6.99113 20.4989L6.62831 20.2838L2.86912 21.2693L3.87281 17.6054V17.6055Z" fill="url(#paint1_linear_1_4405)"/>
<path d="M9.06358 6.95132C8.8399 6.45416 8.60449 6.44413 8.39177 6.43541C8.21758 6.42791 8.01846 6.42848 7.81952 6.42848C7.6204 6.42848 7.29687 6.50338 7.0234 6.80198C6.74965 7.10085 5.97827 7.8231 5.97827 9.29207C5.97827 10.7611 7.04824 12.1808 7.1974 12.3802C7.34674 12.5792 9.26299 15.6902 12.2979 16.887C14.8201 17.8816 15.3334 17.6838 15.8808 17.6339C16.4283 17.5843 17.6474 16.9119 17.8961 16.2147C18.1451 15.5175 18.1451 14.92 18.0704 14.7951C17.9958 14.6707 17.7967 14.596 17.4981 14.4467C17.1994 14.2974 15.7315 13.575 15.4578 13.4754C15.1841 13.3758 14.985 13.3261 14.7859 13.6251C14.5868 13.9236 14.015 14.596 13.8407 14.7951C13.6666 14.9947 13.4923 15.0195 13.1938 14.8702C12.8951 14.7204 11.9335 14.4055 10.7926 13.3884C9.90499 12.5969 9.30574 11.6196 9.13155 11.3206C8.95737 11.0221 9.1129 10.8603 9.26262 10.7115C9.39677 10.5778 9.5613 10.3629 9.71074 10.1886C9.85962 10.0142 9.9093 9.88982 10.0089 9.6907C10.1085 9.49138 10.0586 9.31701 9.98412 9.16766C9.9093 9.01832 9.32908 7.54166 9.06358 6.95132Z" fill="white"/>
<defs>
<linearGradient id="paint0_linear_1_4405" x1="1158.85" y1="2327.71" x2="1158.85" y2="0.41748" gradientUnits="userSpaceOnUse">
<stop stop-color="#1FAF38"/>
<stop offset="1" stop-color="#60D669"/>
</linearGradient>
<linearGradient id="paint1_linear_1_4405" x1="1200" y1="2410.75" x2="1200" y2="0" gradientUnits="userSpaceOnUse">
<stop stop-color="#F9F9F9"/>
<stop offset="1" stop-color="white"/>
</linearGradient>
</defs>
</svg>
