<svg width="18" height="18" viewBox="0 0 18 18" fill="none" xmlns="http://www.w3.org/2000/svg">
<path d="M0 16.714H18V17.9997H0V16.714ZM16.0714 5.78544C16.2419 5.78544 16.4054 5.71771 16.526 5.59715C16.6466 5.47659 16.7143 5.31308 16.7143 5.14258V3.21401C16.7142 3.0819 16.6735 2.95301 16.5976 2.84488C16.5216 2.73676 16.4142 2.65465 16.29 2.60973L9.21857 0.0382979C9.07733 -0.012766 8.92267 -0.012766 8.78143 0.0382979L1.71 2.60973C1.58575 2.65465 1.47837 2.73676 1.40245 2.84488C1.32653 2.95301 1.28577 3.0819 1.28571 3.21401V5.14258C1.28571 5.31308 1.35344 5.47659 1.474 5.59715C1.59456 5.71771 1.75808 5.78544 1.92857 5.78544H2.57143V14.1426H1.28571V15.4283H16.7143V14.1426H15.4286V5.78544H16.0714ZM2.57143 3.66401L9 1.32401L15.4286 3.66401V4.49973H2.57143V3.66401ZM10.2857 14.1426H7.71429V5.78544H10.2857V14.1426ZM3.85714 5.78544H6.42857V14.1426H3.85714V5.78544ZM14.1429 14.1426H11.5714V5.78544H14.1429V14.1426Z" fill="#35A162"/>
</svg>
