<svg width="23" height="21" viewBox="0 0 23 21" fill="none" xmlns="http://www.w3.org/2000/svg">
<path d="M11.3754 8.58069C13.7882 6.15478 19.8218 10.399 11.3754 15.857C2.92892 10.399 8.9625 6.15478 11.3754 8.58069Z" fill="#3D79EF"/>
<path d="M12.4006 0.631826C12.1287 0.359986 11.7599 0.207275 11.3754 0.207275C10.9909 0.207275 10.6222 0.359986 10.3502 0.631826L0.711864 10.2687C0.575918 10.4049 0.49962 10.5895 0.499756 10.7818C0.499892 10.9742 0.57645 11.1587 0.712589 11.2946C0.848728 11.4306 1.0333 11.5069 1.22569 11.5068C1.41808 11.5066 1.60254 11.4301 1.73849 11.2939L2.67521 10.3572V18.0322C2.67521 18.6091 2.90437 19.1623 3.31227 19.5702C3.72017 19.9781 4.2734 20.2073 4.85026 20.2073H17.9006C18.4774 20.2073 19.0307 19.9781 19.4386 19.5702C19.8465 19.1623 20.0756 18.6091 20.0756 18.0322V10.3572L21.0123 11.2939C21.1483 11.4301 21.3327 11.5066 21.5251 11.5068C21.7175 11.5069 21.9021 11.4306 22.0382 11.2946C22.1744 11.1587 22.2509 10.9742 22.2511 10.7818C22.2512 10.5895 22.1749 10.4049 22.039 10.2687L18.6256 6.85682V2.08186C18.6256 1.88957 18.5492 1.70516 18.4132 1.56919C18.2773 1.43323 18.0928 1.35684 17.9006 1.35684H16.4505C16.2582 1.35684 16.0738 1.43323 15.9379 1.56919C15.8019 1.70516 15.7255 1.88957 15.7255 2.08186V3.95675L12.4006 0.631826ZM18.6256 8.90717V18.0322C18.6256 18.2245 18.5492 18.4089 18.4132 18.5449C18.2773 18.6809 18.0928 18.7572 17.9006 18.7572H4.85026C4.65797 18.7572 4.47356 18.6809 4.3376 18.5449C4.20163 18.4089 4.12524 18.2245 4.12524 18.0322V8.90717L11.3754 1.657L18.6256 8.90717Z" fill="#3D79EF"/>
</svg>
