<svg width="20" height="20" viewBox="0 0 20 20" fill="none" xmlns="http://www.w3.org/2000/svg">
<path d="M8.18182 10.9091L5.45455 7.27273H0V20H18.1818L12.7273 12.7273L8.18182 10.9091ZM9.57273 13.4273L3.63636 15.4091L1.81818 14.8V13.0818L3.63636 13.6909L7.22727 12.4909L9.57273 13.4273ZM4.54545 9.09091L5.97273 10.9909L3.63636 11.7727L1.81818 11.1636V9.09091H4.54545ZM1.81818 18.1818V16.7182L3.63636 17.3273L11.8455 14.5909L14.5455 18.1818H1.81818ZM13.6364 5.45455V0.909091L9.09091 0L6.36364 1.81818V5.45455L9.09091 7.27273L13.6364 5.45455ZM8.18182 2.79091L9.47273 1.92727L11.8182 2.4V4.22727L9.3 5.23636L8.18182 4.48182V2.79091ZM15 6.36364L12.7273 8.18182V10.9091L15 12.7273L19.0909 10.9091V7.27273L15 6.36364ZM17.2727 9.72727L15.2727 10.6182L14.5455 10.0364V9.05455L15.4545 8.32727L17.2727 8.72727V9.72727Z" fill="#F1A5C2"/>
</svg>
