<svg width="22" height="22" viewBox="0 0 22 22" fill="none" xmlns="http://www.w3.org/2000/svg">
<g clip-path="url(#clip0_1_3109)">
<path d="M6.6 12.4667H5.86667C5.86667 12.6612 5.94393 12.8477 6.08146 12.9852C6.21898 13.1227 6.40551 13.2 6.6 13.2V12.4667ZM12.4667 12.4667V13.2C12.6612 13.2 12.8477 13.1227 12.9852 12.9852C13.1227 12.8477 13.2 12.6612 13.2 12.4667H12.4667ZM12.4667 8.8H13.2C13.2002 8.70363 13.1813 8.60818 13.1446 8.51909C13.1079 8.43 13.0539 8.34903 12.9859 8.2808L12.4667 8.8ZM9.53333 5.86667L10.0525 5.34747C9.98441 5.27917 9.90349 5.22499 9.8144 5.18802C9.7253 5.15105 9.62979 5.13202 9.53333 5.13202C9.43687 5.13202 9.34136 5.15105 9.25227 5.18802C9.16318 5.22499 9.08225 5.27917 9.01413 5.34747L9.53333 5.86667ZM6.6 8.8L6.0808 8.2808C6.01274 8.34903 5.9588 8.43 5.92206 8.51909C5.88532 8.60818 5.86649 8.70363 5.86667 8.8H6.6ZM21.7859 20.7475L15.9192 14.8808L14.8808 15.9192L20.7475 21.7859L21.7859 20.7475ZM9.53333 17.6C7.39392 17.6 5.34213 16.7501 3.82934 15.2373C2.31655 13.7245 1.46667 11.6727 1.46667 9.53333H0C0 12.0617 1.0044 14.4866 2.79225 16.2744C4.5801 18.0623 7.00494 19.0667 9.53333 19.0667V17.6ZM17.6 9.53333C17.6 11.6727 16.7501 13.7245 15.2373 15.2373C13.7245 16.7501 11.6727 17.6 9.53333 17.6V19.0667C12.0617 19.0667 14.4866 18.0623 16.2744 16.2744C18.0623 14.4866 19.0667 12.0617 19.0667 9.53333H17.6ZM9.53333 1.46667C11.6727 1.46667 13.7245 2.31655 15.2373 3.82934C16.7501 5.34213 17.6 7.39392 17.6 9.53333H19.0667C19.0667 7.00494 18.0623 4.5801 16.2744 2.79225C14.4866 1.0044 12.0617 0 9.53333 0V1.46667ZM9.53333 0C7.00494 0 4.5801 1.0044 2.79225 2.79225C1.0044 4.5801 0 7.00494 0 9.53333H1.46667C1.46667 7.39392 2.31655 5.34213 3.82934 3.82934C5.34213 2.31655 7.39392 1.46667 9.53333 1.46667V0ZM6.6 13.2H12.4667V11.7333H6.6V13.2ZM13.2 12.4667V8.8H11.7333V12.4667H13.2ZM12.9859 8.2808L10.0525 5.34747L9.01413 6.38587L11.9475 9.3192L12.9859 8.2808ZM9.01413 5.34747L6.0808 8.2808L7.1192 9.3192L10.0525 6.38587L9.01413 5.34747ZM5.86667 8.8V12.4667H7.33333V8.8H5.86667Z" fill="#F1A5C2"/>
</g>
<defs>
<clipPath id="clip0_1_3109">
<rect width="22" height="22" fill="white"/>
</clipPath>
</defs>
</svg>
