<svg width="22" height="22" viewBox="0 0 22 22" fill="none" xmlns="http://www.w3.org/2000/svg">
<path d="M11 11C13.5313 11 15.5833 8.94801 15.5833 6.41671C15.5833 3.8854 13.5313 1.83337 11 1.83337C8.46865 1.83337 6.41663 3.8854 6.41663 6.41671C6.41663 8.94801 8.46865 11 11 11Z" stroke="#3D79EF" stroke-width="1.5" stroke-linecap="round" stroke-linejoin="round"/>
<path d="M3.12585 20.1667C3.12585 16.6192 6.65502 13.75 11 13.75C11.88 13.75 12.7325 13.8692 13.53 14.0892" stroke="#3D79EF" stroke-width="1.5" stroke-linecap="round" stroke-linejoin="round"/>
<path d="M20.1667 16.5C20.1667 17.1875 19.9742 17.8384 19.6351 18.3884C19.4426 18.7184 19.195 19.0117 18.9109 19.25C18.2692 19.8275 17.4259 20.1667 16.5 20.1667C15.1617 20.1667 13.9975 19.4517 13.365 18.3884C13.0259 17.8384 12.8334 17.1875 12.8334 16.5C12.8334 15.345 13.365 14.3092 14.2084 13.64C14.8409 13.1359 15.6384 12.8334 16.5 12.8334C18.5259 12.8334 20.1667 14.4742 20.1667 16.5Z" stroke="#3D79EF" stroke-width="1.5" stroke-miterlimit="10" stroke-linecap="round" stroke-linejoin="round"/>
<path d="M15.0701 16.5L15.9776 17.4075L17.9301 15.6017" stroke="#3D79EF" stroke-width="1.5" stroke-linecap="round" stroke-linejoin="round"/>
</svg>
